# xmcd
#
# Track frame offsets:
#	150
#	12438
#	24926
#	36589
#	51603
#	65997
#	81039
#	95609
#	108540
#	119842
#	132963
#	154433
#	166038
#	182384
#	200056
#	209821
#	221174
#	230216
#	247469
#	261609
#
# Disc length: 3629 seconds
#
# Revision: 5
# Processed by: cddbd v1.5.2PL0 Copyright (c) Steve Scherf et al.
# Submitted via: audiograbber 1.83.01
#
DISCID=4d0e2b14
DTITLE=Various Artist - Country Greats  [CD01)
DYEAR=1999
DGENRE=Oldies
TTITLE0=Ferlin Husky - Me And Old C.B.
TTITLE1=George Jones - Brothers Of A Bottle
TTITLE2=Willie Nelson - I'll Stay Around
TTITLE3=Barbara Fairchild - Rocky Top
TTITLE4=Carl Perkins - That's Alright Mama
TTITLE5=Don Williams - Don't You Think It's Time
TTITLE6=Eddie Raven - Who Do You Know In California
TTITLE7=Freddy Fender - Just Because
TTITLE8=George Jones - There's No Justice
TTITLE9=Glen Yarborough - Come Again
TTITLE10=Jeff Turner - The Ballad Of Billy And Manuela Marie
TTITLE11=Johnny Paycheck - Take This Job And Shove It
TTITLE12=Krüger Brothers - Down In The Coal Mine
TTITLE13=Merle Haggard - Ramblin' Fever
TTITLE14=Mickey Gilley - That's How It's Got To Be
TTITLE15=Terri Gibbs - True Love Is Blind
TTITLE16=Willie Nelson - Waiting Time
TTITLE17=Freddy Fender - Whiskey River
TTITLE18=Ferlin Husky - Hello I'm A Truck
TTITLE19=T.G. Sheppard - Only One You
EXTD=
EXTT0=
EXTT1=
EXTT2=
EXTT3=
EXTT4=
EXTT5=
EXTT6=
EXTT7=
EXTT8=
EXTT9=
EXTT10=
EXTT11=
EXTT12=
EXTT13=
EXTT14=
EXTT15=
EXTT16=
EXTT17=
EXTT18=
EXTT19=
PLAYORDER=
